# xmcd
#
# Track frame offsets:
#	150
#	11507
#	23590
#	33865
#	47377
#	60105
#	70645
#	85235
#	97405
#	110212
#	121600
#	134732
#	146302
#	159380
#	171575
#	181917
#	196082
#	210062
#	223742
#	235612
#	248517
#	262015
#
# Disc length: 3658
#
# Revision: 1
# Processed by: cddbd v1.5.1PL0 Copyright (c) Steve Scherf et al.
# Submitted via: CDex 1.51
# Normalized: r0:TDELIM( - )
#
DISCID=1f0e4816
DTITLE=Various Artist - Chicago Blues: Golden Era (1 of 2)
DYEAR=1950
DGENRE=Blues
TTITLE0=I Just Keep Loving Her - Little Walter
TTITLE1=Ora Nelle Blues - Othum Brown
TTITLE2=Blue Baby - Little Walter
TTITLE3=My Baby Walked Out - Johnny Young
TTITLE4=Stockyard Blues - Floyd Jones
TTITLE5=Boogie - Snooky and Moody
TTITLE6=Dark Road - Floyd Jones
TTITLE7=Five Long Years - Eddie Boyd
TTITLE8=Mojo Boogie - J.B. Lenoir
TTITLE9=Evening Sun - Johnny Shines
TTITLE10=Brutal Hearted Woman - Johnny Shines
TTITLE11=I'm Looking for a Woman - Little Hudson
TTITLE12=Please, Mister Doctor - Tampa Red
TTITLE13=Just Can't Stay - Willie Nix
TTITLE14=Combination Boogie - J.B. Hutto
TTITLE15=Things Are So Slow - J.B. Hutto
TTITLE16=You Don' Have to Go - Jimmy Reed
TTITLE17=Bad Boy - Eddie Taylor
TTITLE18=Aw Baby (Sweet Home Chicago) - Robert Lockwood
TTITLE19=I Was Fooled - Billy Boy Arnold
TTITLE20=Big Town Playboy - Eddie Taylor
TTITLE21=Judgement Day - Snooky Pryor
EXTD=YEAR: 1950
EXTT0=
EXTT1=
EXTT2=
EXTT3=
EXTT4=
EXTT5=
EXTT6=
EXTT7=
EXTT8=
EXTT9=
EXTT10=
EXTT11=
EXTT12=
EXTT13=
EXTT14=
EXTT15=
EXTT16=
EXTT17=
EXTT18=
EXTT19=
EXTT20=
EXTT21=
PLAYORDER=
